<svg
    xmlns="http://www.w3.org/2000/svg"
    viewBox="0 0 1400 960"
    fill="none"
    preserveAspectRatio="xMidYMid meet"
>
    <g fill="#fff">
        <path d="M955.833 1200H880l-50-200H645l-355 880h-90l400-960h280l75.833 280zm-67.528 28.605L909.032 1300l-115-2-95 213 121 1 80 308h160L880 1200h75.833l184.167 680H840l-81-300H589l150-351 149.305-.395zM982.917 1300l-18.959-70H1190l170 590h150l-190-590h70l210 650h-300l-170-580H982.917z" transform="translate(-200 -920)"/>
        <path d="M1040 1140 980 920h280l60 220h-280zm44.555-58.333h159.072l-28.182-103.334h-159.072l28.182 103.334z" transform="translate(-160 -920)"/>
    </g>
</svg>
